<svg xmlns="http://www.w3.org/2000/svg" version="1.1" xmlns:xlink="http://www.w3.org/1999/xlink" viewBox="0 0 200 200"><rect width="200" height="200" fill="url('#gradient')"></rect><defs><linearGradient id="gradient" gradientTransform="rotate(45 0.5 0.5)"><stop offset="0%" stop-color="#000000"></stop><stop offset="100%" stop-color="#6b6b6b"></stop></linearGradient></defs><g><g fill="#f4f4f4" transform="matrix(7.26241134751773,0,0,7.26241134751773,6.676449482111224,151.64000034332275)" stroke="#000000" stroke-width="0.2"><path d="M3.88-6.04L3.88-8.49L5.43-8.49Q7.28-8.49 7.28-10.29L7.28-10.29Q7.28-11.00 6.84-11.44Q6.40-11.88 5.60-11.88L5.60-11.88Q4.94-11.88 4.46-11.50Q3.97-11.12 3.97-10.56L3.97-10.56L0.68-10.56Q0.68-11.68 1.31-12.56Q1.93-13.44 3.04-13.93Q4.15-14.42 5.48-14.42L5.48-14.42Q7.85-14.42 9.21-13.34Q10.57-12.26 10.57-10.36L10.57-10.36Q10.57-9.44 10.00-8.63Q9.44-7.81 8.37-7.30L8.37-7.30Q9.50-6.89 10.15-6.06Q10.79-5.22 10.79-3.99L10.79-3.99Q10.79-2.09 9.33-0.95Q7.86 0.20 5.48 0.20L5.48 0.20Q4.08 0.20 2.89-0.34Q1.69-0.87 1.07-1.81Q0.46-2.75 0.46-3.96L0.46-3.96L3.77-3.96Q3.77-3.30 4.30-2.82Q4.82-2.34 5.60-2.34L5.60-2.34Q6.46-2.34 6.98-2.83Q7.50-3.31 7.50-4.06L7.50-4.06Q7.50-5.14 6.96-5.59Q6.43-6.04 5.48-6.04L5.48-6.04L3.88-6.04ZM21.56 0L20.73-2.66L16.04-2.66L15.21 0L11.55 0L16.77-14.22L19.99-14.22L25.24 0L21.56 0ZM18.38-10.23L16.86-5.30L19.91-5.30L18.38-10.23Z"></path></g></g></svg>